<svg xmlns="http://www.w3.org/2000/svg" width="21.967" height="17.455" viewBox="0 0 21.967 17.455"><defs><style>.a,.b{fill:#858aa8;}.b{stroke:#858aa8;stroke-width:0.1px;}.c{stroke:none;}.d{fill:none;}</style></defs><g transform="translate(18887 21738.242)"><g transform="translate(-18887 -21828.836)"><g transform="translate(0 92.835)"><path class="a" d="M21.827,99.408c-.2-.268-4.872-6.573-10.844-6.573S.335,99.14.139,99.408a.725.725,0,0,0,0,.855c.2.268,4.872,6.573,10.844,6.573s10.648-6.3,10.844-6.573a.724.724,0,0,0,0-.855Zm-10.844,5.979c-4.4,0-8.209-4.185-9.337-5.553,1.126-1.369,4.928-5.552,9.337-5.552s8.208,4.184,9.337,5.553c-1.126,1.37-4.928,5.553-9.337,5.553Z" transform="translate(0 -92.835)"/></g><g transform="translate(6.638 95.49)"><path class="a" d="M159.067,154.725a4.345,4.345,0,1,0,4.345,4.345,4.345,4.345,0,0,0-4.345-4.345Zm0,7.242a2.9,2.9,0,1,1,2.9-2.9,2.9,2.9,0,0,1-2.9,2.9Z" transform="translate(-154.722 -154.725)"/></g></g><g class="b" transform="translate(-18880.201 -21738.242) rotate(60)"><rect class="c" width="19" height="2"/><rect class="d" x="0.05" y="0.05" width="18.9" height="1.9"/></g></g></svg>