<svg xmlns="http://www.w3.org/2000/svg" xmlns:xlink="http://www.w3.org/1999/xlink" width="22" height="22" viewBox="0 0 22 22"><defs><style>.a,.c{fill:#242a4b;}.a{stroke:#242a4b;}.b{clip-path:url(#a);}</style><clipPath id="a"><rect class="a" width="22" height="22" transform="translate(64 381)"/></clipPath></defs><g class="b" transform="translate(-64 -381)"><g transform="translate(64 381)"><path class="c" d="M17.812,15.259a.351.351,0,0,1-.243-.1l-4.082-3.829a.355.355,0,1,1,.486-.516l4.082,3.829a.355.355,0,0,1-.243.613Z"/><path class="c" d="M4.187,15.259a.355.355,0,0,1-.243-.613l4.083-3.829a.355.355,0,1,1,.486.516L4.43,15.163A.351.351,0,0,1,4.187,15.259Z"/><path class="c" d="M20.226,18.82H1.774A1.776,1.776,0,0,1,0,17.046V4.953A1.776,1.776,0,0,1,1.774,3.18H20.226A1.776,1.776,0,0,1,22,4.953V17.046A1.776,1.776,0,0,1,20.226,18.82ZM1.774,3.889A1.065,1.065,0,0,0,.709,4.953V17.046A1.065,1.065,0,0,0,1.774,18.11H20.226a1.065,1.065,0,0,0,1.064-1.064V4.953a1.065,1.065,0,0,0-1.064-1.064Z"/><path class="c" d="M11,12.782a1.984,1.984,0,0,1-1.3-.47L.589,4.366a.355.355,0,1,1,.466-.535l9.109,7.945a1.327,1.327,0,0,0,1.672,0l9.1-7.933a.355.355,0,1,1,.467.535l-9.1,7.933A1.982,1.982,0,0,1,11,12.782Z"/></g></g></svg>