<svg xmlns="http://www.w3.org/2000/svg" xmlns:xlink="http://www.w3.org/1999/xlink" width="22" height="22" viewBox="0 0 22 22"><defs><style>.a,.c{fill:#242a4b;}.a{stroke:#242a4b;}.b{clip-path:url(#a);}</style><clipPath id="a"><rect class="a" width="22" height="22" transform="translate(64 331)"/></clipPath></defs><g class="b" transform="translate(-64 -331)"><g transform="translate(64 331)"><path class="c" d="M16.693,0H5.307A1.394,1.394,0,0,0,3.914,1.393V20.607A1.394,1.394,0,0,0,5.307,22H16.693a1.394,1.394,0,0,0,1.393-1.393V1.393A1.394,1.394,0,0,0,16.693,0ZM4.612,3.5H17.388V18.05H4.612ZM5.307.7H16.693a.7.7,0,0,1,.695.695V3.035H4.612V1.393A.7.7,0,0,1,5.307.7ZM16.693,21.3H5.307a.7.7,0,0,1-.695-.695V18.515H17.388v2.092A.7.7,0,0,1,16.693,21.3Z"/><path class="c" d="M11,18.824a1.143,1.143,0,1,0,1.143,1.143A1.144,1.144,0,0,0,11,18.824Zm0,1.821a.678.678,0,1,1,.678-.678A.678.678,0,0,1,11,20.645Z"/><path class="c" d="M9.418,2.217h3.164a.233.233,0,1,0,0-.465H9.418a.233.233,0,1,0,0,.465Z"/><path class="c" d="M8.581,2.217a.232.232,0,1,0-.165-.068A.234.234,0,0,0,8.581,2.217Z"/></g></g></svg>