<svg xmlns="http://www.w3.org/2000/svg" width="21.967" height="14.001" viewBox="0 0 21.967 14.001"><defs><style>.a{fill:#858aa8;}</style></defs><g transform="translate(0 -92.835)"><g transform="translate(0 92.835)"><g transform="translate(0)"><path class="a" d="M21.827,99.408c-.2-.268-4.872-6.573-10.844-6.573S.335,99.14.139,99.408a.725.725,0,0,0,0,.855c.2.268,4.872,6.573,10.844,6.573s10.648-6.3,10.844-6.573A.724.724,0,0,0,21.827,99.408Zm-10.844,5.979c-4.4,0-8.209-4.185-9.337-5.553,1.126-1.369,4.928-5.552,9.337-5.552s8.208,4.184,9.337,5.553C19.194,101.205,15.392,105.388,10.983,105.388Z" transform="translate(0 -92.835)"/></g></g><g transform="translate(6.638 95.49)"><g transform="translate(0 0)"><path class="a" d="M159.067,154.725a4.345,4.345,0,1,0,4.345,4.345A4.35,4.35,0,0,0,159.067,154.725Zm0,7.242a2.9,2.9,0,1,1,2.9-2.9A2.9,2.9,0,0,1,159.067,161.967Z" transform="translate(-154.722 -154.725)"/></g></g></g></svg>